<svg xmlns="http://www.w3.org/2000/svg" width="2405" height="400" viewBox="0 0 2405 400" fill="none"><path fill-rule="evenodd" clip-rule="evenodd" d="M0 196.273C0 87.8744 90.0991 0 201.242 0C312.385 0 402.484 87.8744 402.484 196.273H0ZM802.484 196.274C802.484 308.789 712.941 400 602.484 400C492.027 400 402.484 308.789 402.484 196.274L802.484 196.274Z" fill="#501DFF"></path><path d="M999.921 297.778V186.679C999.921 155.121 1020.24 135.236 1047.47 135.236C1075.14 135.236 1092.43 154.689 1092.43 182.788V297.778H1133.5V174.142C1133.5 130.48 1101.94 96.7617 1055.69 96.7617C1024.99 96.7617 1004.68 112.324 997.327 123.996V101.517H958.853V297.778H999.921Z" fill="#13044F"></path><path d="M1280.77 302.533C1340.86 302.533 1386.25 258.007 1386.25 199.647C1386.25 141.288 1340.86 96.7617 1280.77 96.7617C1221.12 96.7617 1175.29 141.288 1175.29 199.647C1175.29 258.007 1221.12 302.533 1280.77 302.533ZM1280.77 262.762C1244.89 262.762 1218.52 235.96 1218.52 199.647C1218.52 163.335 1244.89 136.533 1280.77 136.1C1316.22 136.533 1343.02 163.335 1343.02 199.647C1343.02 235.96 1316.22 262.762 1280.77 262.762Z" fill="#13044F"></path><path d="M1545.73 300.371V262.33H1522.39C1503.8 262.33 1486.51 252.819 1486.51 226.449V137.397H1545.73V101.517H1486.51V53.9647H1456.25V54.8293C1456.25 89.845 1435.06 107.569 1412.15 107.569H1410.85V137.397H1445.44V230.34C1445.44 277.46 1473.97 300.371 1517.2 300.371H1545.73Z" fill="#13044F"></path><path d="M1657.01 302.533C1687.7 302.533 1708.45 287.403 1715.8 276.163V297.778H1753.84V173.71C1753.84 133.939 1723.58 96.7617 1668.25 96.7617C1627.18 96.7617 1600.38 118.809 1587.84 146.908L1618.53 166.793C1626.31 148.204 1641.88 133.939 1668.25 133.939C1698.07 133.939 1712.34 150.798 1712.34 163.767C1712.34 174.574 1704.56 181.923 1692.02 181.923H1647.06C1609.02 181.923 1581.36 203.97 1581.36 238.554C1581.36 274.002 1610.75 302.533 1657.01 302.533ZM1660.46 267.085C1637.12 267.085 1624.15 254.548 1624.15 238.986C1624.15 224.72 1635.39 213.913 1651.82 213.913H1713.2V216.507C1713.2 245.903 1693.32 267.085 1660.46 267.085Z" fill="#13044F"></path><path d="M1848.67 297.778V192.731C1848.67 159.876 1867.69 137.397 1900.54 137.397H1917.84V97.194H1903.57C1878.5 97.194 1855.59 109.298 1846.08 128.751V101.517H1807.6V297.778H1848.67Z" fill="#13044F"></path><path d="M1975.79 55.6939C1992.22 55.6939 2004.32 44.022 2004.32 28.4595C2004.32 12.8969 1992.22 0.792725 1975.79 0.792725C1960.23 0.792725 1947.69 12.8969 1947.69 28.4595C1947.69 44.022 1960.23 55.6939 1975.79 55.6939ZM1996.54 297.778V101.517H1955.47V297.778H1996.54Z" fill="#13044F"></path><path d="M2166.93 300.371V262.33H2143.59C2125 262.33 2107.71 252.819 2107.71 226.449V137.397H2166.93V101.517H2107.71V53.9647H2077.45V54.8293C2077.45 89.845 2056.27 107.569 2033.36 107.569H2032.06V137.397H2066.64V230.34C2066.64 277.46 2095.17 300.371 2138.4 300.371H2166.93Z" fill="#13044F"></path><path d="M2250.54 398.07L2404.44 101.517H2357.75L2293.77 229.043L2231.09 101.517H2184.83L2270 270.976L2202.13 398.07H2250.54Z" fill="#13044F"></path></svg>